<?xml version="1.0" encoding="UTF-8" standalone="no"?><!DOCTYPE svg PUBLIC "-//W3C//DTD SVG 1.1//EN" "http://www.w3.org/Graphics/SVG/1.1/DTD/svg11.dtd"><svg width="100%" height="100%" viewBox="0 0 3334 2500" version="1.1" xmlns="http://www.w3.org/2000/svg" xmlns:xlink="http://www.w3.org/1999/xlink" xml:space="preserve" xmlns:serif="http://www.serif.com/" style="fill-rule:evenodd;clip-rule:evenodd;stroke-linejoin:round;stroke-miterlimit:2;"><g><path d="M535.208,954.82c-3.922,10.085 1.261,18.209 15.548,24.373l21.431,-12.187l-2.941,-15.128l-15.548,-6.303l-18.49,9.245Zm-15.128,-79.842c42.862,4.202 72.558,4.202 89.087,0c50.986,12.327 77.46,32.777 79.421,61.352l0,30.676l-15.128,24.793l0,12.186c28.575,18.21 37.82,57.01 27.735,116.401c-14.568,36.98 -45.244,57.43 -92.028,61.352l-101.273,-2.941c-24.653,-6.164 -42.022,-13.307 -52.107,-21.431c-14.568,-10.366 -24.793,-25.774 -30.676,-46.225c-5.884,-26.614 4.342,-43.983 30.676,-52.107l-3.362,-15.128c-26.334,-16.528 -33.478,-57.43 -21.431,-122.704c12.326,-26.614 42.022,-42.022 89.086,-46.224Zm30.676,226.919c24.373,2.241 37.68,0.28 39.921,-5.884l-0,-18.489l-12.186,-6.303c-24.653,-1.961 -39.081,0.14 -43.283,6.303c-3.922,10.085 1.261,18.209 15.548,24.373Zm12.186,67.655c38.941,-6.163 66.535,-13.307 82.784,-21.431c16.528,-12.327 29.835,-29.696 39.921,-52.108c12.326,-55.188 -33.618,-91.047 -137.832,-107.576c-20.451,8.125 -33.758,4.062 -39.921,-12.186c-4.202,-22.412 0.84,-36.699 15.128,-42.862c16.528,3.922 36.979,3.922 61.352,-0l33.617,27.734c22.692,10.085 39.081,7.004 49.166,-9.245c4.202,-6.163 -0.841,-17.509 -15.128,-34.037c-10.365,-12.047 -36.979,-22.272 -79.842,-30.676c-34.738,2.241 -65.414,8.404 -92.028,18.489c-14.287,10.366 -26.614,25.774 -36.979,46.224c-1.961,38.66 5.183,62.193 21.431,70.597c18.49,16.249 32.917,24.373 43.283,24.373l92.028,9.245c16.248,8.124 21.291,24.512 15.128,49.165l-15.128,15.128l-70.597,-2.941l-30.676,-27.735l-39.921,-2.941l-9.245,9.244c0,34.739 37.82,59.251 113.459,73.539Z" style="fill-rule:nonzero;"/><path d="M734.812,1003.99l43.283,5.884c16.248,-8.125 28.435,-3.923 36.559,12.606l-2.942,100.853l9.245,15.548l18.49,-0l12.186,-21.431l0,-64.294c-10.365,-32.777 -7.284,-50.286 9.245,-52.527c50.987,-3.922 77.46,1.26 79.421,15.548l-5.883,92.028l5.883,79.842l-15.127,15.127l-52.108,0l-46.224,15.549c-63.313,8.124 -98.051,-9.245 -104.214,-52.108c4.202,-12.326 3.222,-61.492 -2.942,-147.497l15.128,-15.128Zm49.166,196.243c26.614,1.961 50.146,-5.183 70.597,-21.431c8.124,-1.961 23.532,1.12 46.224,9.245c14.287,-2.242 22.411,-16.529 24.373,-42.863c1.961,-61.352 -0.141,-99.312 -6.304,-113.879l-21.431,-15.128c-18.209,-1.961 -30.396,9.245 -36.559,33.617l2.941,95.39l-12.186,15.128c-34.738,4.202 -53.228,-0.84 -55.469,-15.128l0,-58.41c8.405,-20.451 8.405,-37.82 0,-52.108l-24.373,-15.548l-21.431,6.304l-12.186,18.489c3.922,44.824 2.801,73.399 -3.362,85.725c4.202,34.738 20.591,58.27 49.166,70.597Z" style="fill-rule:nonzero;"/><path d="M976.438,959.442c3.642,105.335 3.642,169.209 0,191.62l8.405,14.288l13.867,8.404c3.922,1.961 11.486,-0.84 22.692,-8.404l11.346,-19.751l-5.883,-53.788l14.287,-13.867l53.788,0l13.867,13.867c-1.961,45.104 4.623,71.438 19.751,79.002c28.294,13.166 47.064,2.801 56.309,-31.097l-11.346,-50.426l-33.617,-31.096l-0,-11.346c22.411,-15.128 37.399,-31.096 44.963,-47.905c5.603,-15.128 0,-31.096 -16.809,-47.905l-33.617,-17.229l-45.384,-8.405l-90.347,5.884c-9.245,5.602 -16.669,14.987 -22.272,28.154Zm36.559,-45.383c7.564,3.922 44.263,3.922 110.098,-0c48.745,5.883 75.079,22.831 79.001,50.846c5.603,35.859 -0.98,64.154 -19.75,84.884l2.521,19.751c11.486,20.45 15.268,39.22 11.346,56.309l-2.942,11.346l8.825,39.501l-14.287,13.867l-79.002,-5.463l-11.346,-14.287l-2.521,-56.31c-20.731,-29.976 -38.66,-28.995 -53.788,2.942l2.942,53.368l-14.288,14.287c-18.77,-3.922 -37.539,-3.922 -56.309,-0l-14.288,-14.287l8.825,-121.024l-2.942,-118.501l13.868,-14.288l34.037,-2.941Zm47.905,53.788c20.731,3.642 36.699,3.642 47.905,-0l14.288,14.287c3.642,33.618 -1.121,51.407 -14.288,53.368c-39.5,3.642 -60.231,-1.121 -62.192,-14.288c-3.642,-33.617 1.12,-51.406 14.287,-53.367Zm19.751,53.367c3.642,3.923 12.046,-0.7 25.213,-13.867c5.883,-3.642 0.28,-12.046 -16.809,-25.213c-3.642,-3.922 -12.046,-0.28 -25.213,10.926c-5.603,11.486 -0,20.871 16.809,28.154Z" style="fill-rule:nonzero;"/><path d="M1230.25,959.442c3.642,105.335 3.642,169.209 -0,191.62l8.404,14.288l13.867,8.404c3.922,1.961 11.486,-0.84 22.692,-8.404l11.346,-19.751l-5.883,-53.788l14.287,-13.867l53.789,0l13.867,13.867c-1.961,45.104 4.622,71.438 19.75,79.002c28.295,13.166 47.065,2.801 56.309,-31.097l-11.345,-50.426l-33.618,-31.096l0,-11.346c22.412,-15.128 37.4,-31.096 44.963,-47.905c5.603,-15.128 0,-31.096 -16.808,-47.905l-33.618,-17.229l-45.384,-8.405l-90.347,5.884c-9.244,5.602 -16.668,14.987 -22.271,28.154Zm36.559,-45.383c7.564,3.922 44.263,3.922 110.097,-0c48.746,5.883 75.079,22.831 79.001,50.846c5.603,35.859 -0.98,64.154 -19.75,84.884l2.521,19.751c11.486,20.45 15.268,39.22 11.346,56.309l-2.941,11.346l8.824,39.501l-14.287,13.867l-79.001,-5.463l-11.346,-14.287l-2.521,-56.31c-20.731,-29.976 -38.661,-28.995 -53.789,2.942l2.942,53.368l-14.287,14.287c-18.77,-3.922 -37.54,-3.922 -56.31,-0l-14.287,-14.287l8.824,-121.024l-2.941,-118.501l13.867,-14.288l34.038,-2.941Zm47.905,53.788c20.731,3.642 36.699,3.642 47.905,-0l14.287,14.287c3.642,33.618 -1.12,51.407 -14.287,53.368c-39.501,3.642 -60.232,-1.121 -62.193,-14.288c-3.642,-33.617 1.121,-51.406 14.288,-53.367Zm19.75,53.367c3.642,3.923 12.046,-0.7 25.213,-13.867c5.883,-3.642 0.28,-12.046 -16.809,-25.213c-3.641,-3.922 -12.046,-0.28 -25.213,10.926c-5.603,11.486 0,20.871 16.809,28.154Z" style="fill-rule:nonzero;"/><path d="M1486.58,951.878c6.164,16.809 8.265,36.699 6.304,59.671l-3.362,0c4.202,27.175 3.222,51.267 -2.942,72.278c-2.241,24.933 -0.14,46.785 6.304,65.554l28.154,15.969l21.852,-6.304l109.677,6.304l44.123,-3.362l15.548,-18.91c6.163,-20.731 -8.404,-34.318 -43.703,-40.761l-110.097,3.362l-15.548,-15.549c-1.961,-25.213 0.14,-37.819 6.303,-37.819c1.961,-8.405 41.742,-12.607 119.342,-12.607c10.366,-8.404 13.447,-17.789 9.245,-28.155l-21.851,-15.548l-65.975,2.942c-10.365,-4.202 -16.668,-13.587 -18.909,-28.155c-1.961,-27.174 9.525,-40.761 34.458,-40.761l75.219,2.941l18.91,-12.186l-0,-18.91l-18.91,-12.606l-50.006,-0l-21.852,6.303l-44.123,-3.362c-14.567,6.444 -33.337,8.545 -56.309,6.303c-10.366,0 -17.649,17.79 -21.852,53.368Zm40.762,-71.857l50.006,2.941l31.516,-6.303c29.135,4.202 61.492,4.202 97.071,0l15.548,15.548c4.202,31.377 -0.98,49.166 -15.548,53.368c-43.983,-8.404 -80.542,-4.202 -109.677,12.607l-0,15.548l18.91,12.606l65.554,-2.941l15.968,15.548c4.202,41.742 -1.12,62.613 -15.968,62.613c-64.714,-6.164 -101.273,-2.942 -109.677,9.665c-4.203,1.961 -0,9.244 12.606,21.851l81.523,-0c50.146,-18.77 72.137,-3.082 65.974,47.065c0,27.174 -5.323,40.761 -15.968,40.761l-84.464,-6.304c-50.146,4.203 -84.604,4.203 -103.374,0c-35.579,10.366 -54.489,7.284 -56.73,-9.244l6.303,-81.523c-4.202,-35.578 -3.081,-58.69 3.362,-69.336l-6.303,-24.793l2.941,-34.458c-8.404,-12.607 -9.384,-33.618 -2.941,-63.033c-0,-8.124 17.789,-12.186 53.368,-12.186Z" style="fill-rule:nonzero;"/><path d="M1841.25,945.575l91.187,3.362c12.327,8.404 20.591,21.991 24.793,40.761l65.975,231.961c-0,12.607 -5.183,21.011 -15.549,25.213c-33.617,-4.202 -62.892,-4.202 -87.825,0l-12.607,-9.665l-12.607,-31.096c-12.606,-14.848 -21.991,-21.151 -28.154,-18.91c-12.607,1.961 -21.992,16.529 -28.155,43.703c-10.646,12.606 -24.233,17.929 -40.761,15.968l-3.362,-3.362c-24.933,8.405 -41.602,4.203 -50.006,-12.606c-2.241,-14.568 4.062,-40.621 18.91,-78.161l62.612,-194.561l15.549,-12.607Zm-56.31,285.329c8.405,2.241 17.789,-0.841 28.155,-9.245l15.548,-37.82c6.443,-12.326 28.435,-16.388 65.974,-12.186l15.549,9.245l9.665,28.154c20.73,21.011 34.317,29.416 40.761,25.214c6.163,6.163 17.649,-0.14 34.458,-18.91c4.202,-1.961 -16.669,-79.282 -62.613,-231.961c-10.645,-10.366 -25.353,-17.649 -44.123,-21.852c-24.933,-4.202 -41.602,4.062 -50.006,24.793l-68.916,216.413c-4.202,4.202 0.981,13.587 15.548,28.155Zm87.826,-216.413l15.548,6.303l18.91,72.278c4.202,18.77 -0,29.275 -12.607,31.516c-29.135,4.203 -45.804,-1.12 -50.006,-15.968l18.91,-84.464l9.245,-9.665Z" style="fill-rule:nonzero;"/><path d="M2073.21,914.479c43.983,-4.202 65.974,0.98 65.974,15.548l-2.942,172.29l9.245,18.91l18.91,12.606l72.278,-2.941l15.548,15.548c6.163,33.337 -0.14,57.43 -18.91,72.278l-47.064,-0l-18.91,-6.304c-68.916,4.202 -108.557,4.202 -118.922,0l-15.969,-15.968c4.203,-18.77 4.203,-45.944 0,-81.523c8.405,-22.972 9.525,-83.623 3.362,-181.955c8.404,-14.567 20.871,-20.73 37.4,-18.489Zm34.878,288.27l109.677,-2.941l15.548,-15.969l0,-21.851l-21.851,-18.91l-72.278,3.362l-15.548,-15.548l2.941,-172.71l-6.303,-15.549l-12.186,-9.665l-44.123,3.362l-15.548,25.213c4.202,123.265 3.081,192.181 -3.362,206.748l15.968,25.213l47.065,9.245Z" style="fill-rule:nonzero;"/><path d="M2254.33,958.182l6.303,78.581l-3.361,-0l3.361,97.07l-6.303,34.458l9.245,18.91l18.91,12.607l21.851,-0l21.852,-15.969l6.303,-15.548l-6.303,-84.464l3.361,0c-4.202,-64.994 -3.221,-101.693 2.942,-110.097c2.241,-18.77 -9.245,-34.318 -34.458,-46.645l-15.548,0l-21.852,15.548l-6.303,15.549Zm2.942,-43.703c21.011,4.202 45.103,4.202 72.277,-0l15.548,15.548c-4.202,21.011 -4.202,50.286 0,87.826l-6.303,28.154l6.303,68.916c-4.202,27.175 -4.202,54.349 0,81.523l-15.548,15.968c-41.741,-4.202 -65.834,-4.202 -72.277,0l-15.548,-15.968c4.202,-18.77 4.202,-49.026 -0,-90.767l6.303,-28.155l-0,-37.82l-6.303,-28.155c4.202,-31.376 4.202,-58.55 -0,-81.522l15.548,-15.548Z" style="fill-rule:nonzero;"/><path d="M2471.58,954.82c-3.922,10.085 1.261,18.209 15.549,24.373l21.431,-12.187l-2.942,-15.128l-15.548,-6.303l-18.49,9.245Zm-15.127,-79.842c42.862,4.202 72.557,4.202 89.086,0c50.987,12.327 77.46,32.777 79.422,61.352l-0,30.676l-15.128,24.793l-0,12.186c28.575,18.21 37.819,57.01 27.734,116.401c-14.568,36.98 -45.244,57.43 -92.028,61.352l-101.273,-2.941c-24.653,-6.164 -42.022,-13.307 -52.107,-21.431c-14.568,-10.366 -24.793,-25.774 -30.676,-46.225c-5.883,-26.614 4.342,-43.983 30.676,-52.107l-3.362,-15.128c-26.333,-16.528 -33.477,-57.43 -21.431,-122.704c12.327,-26.614 42.022,-42.022 89.087,-46.224Zm30.676,226.919c24.372,2.241 37.679,0.28 39.92,-5.884l0,-18.489l-12.186,-6.303c-24.653,-1.961 -39.08,0.14 -43.283,6.303c-3.922,10.085 1.261,18.209 15.549,24.373Zm12.186,67.655c38.94,-6.163 66.535,-13.307 82.783,-21.431c16.529,-12.327 29.836,-29.696 39.921,-52.108c12.326,-55.188 -33.618,-91.047 -137.832,-107.576c-20.451,8.125 -33.758,4.062 -39.921,-12.186c-4.202,-22.412 0.841,-36.699 15.128,-42.862c16.529,3.922 36.979,3.922 61.352,-0l33.618,27.734c22.692,10.085 39.08,7.004 49.165,-9.245c4.203,-6.163 -0.84,-17.509 -15.128,-34.037c-10.365,-12.047 -36.979,-22.272 -79.841,-30.676c-34.738,2.241 -65.414,8.404 -92.028,18.489c-14.288,10.366 -26.614,25.774 -36.98,46.224c-1.961,38.66 5.183,62.193 21.432,70.597c18.489,16.249 32.917,24.373 43.282,24.373l92.028,9.245c16.249,8.124 21.291,24.512 15.128,49.165l-15.128,15.128l-70.597,-2.941l-30.676,-27.735l-39.92,-2.941l-9.245,9.244c-0,34.739 37.819,59.251 113.459,73.539Z" style="fill-rule:nonzero;"/><path d="M2769.09,951.878c39.78,-4.202 66.955,0 81.522,12.607l56.31,-12.607c33.617,-4.202 61.912,1.121 84.884,15.969c10.365,8.124 16.669,20.59 18.91,37.399c-4.202,58.551 -4.202,108.697 -0,150.439l-15.969,15.968c-29.135,-4.202 -48.885,-4.202 -59.25,-0l-15.969,-15.968l3.362,-53.368c-6.443,-12.327 -8.544,-28.995 -6.303,-50.006l-9.665,-15.548l-18.49,-0l-12.607,21.851l2.942,94.129l-15.548,15.548l-62.613,-2.941l-15.968,-15.969l3.362,-84.464l-6.304,-15.548l-12.606,-9.665c-10.366,0 -17.649,4.202 -21.852,12.607l-6.303,18.91c4.202,50.146 4.202,79.421 0,87.825c-4.202,8.405 -16.809,12.607 -37.82,12.607c-31.376,4.202 -49.165,-1.121 -53.368,-15.968l6.304,-71.858l-0,-59.671c-10.086,-31.376 -6.864,-50.146 9.665,-56.309l59.671,-0l43.703,-15.969Zm53.368,197.503l28.154,-2.941l15.548,-25.213l-2.941,-90.768l12.606,-15.968c45.944,-6.163 65.835,8.544 59.672,44.123l-3.362,68.916l9.245,18.91l18.91,12.606c4.202,1.961 12.606,-1.26 25.213,-9.665l12.606,-21.851c1.961,-64.714 -1.26,-104.355 -9.665,-118.922c-10.365,-21.011 -29.135,-34.598 -56.309,-40.761c-21.011,-2.242 -43.983,8.124 -68.916,31.096l-15.548,-0l-40.762,-28.155c-25.213,0 -43.002,5.183 -53.367,15.548c-18.77,12.607 -37.68,11.626 -56.73,-2.941c-12.326,-0 -20.591,4.202 -24.793,12.606l-6.303,24.793c-6.444,75.36 0.84,119.343 21.851,131.949l28.155,-3.362l15.548,-24.793l-2.942,-84.884l18.91,-18.91c31.377,-4.202 49.166,1.121 53.368,15.969c-10.645,70.877 -3.362,108.416 21.852,112.618Z" style="fill-rule:nonzero;"/><path d="M797.244,1291.57c30.055,0.282 44.751,4.153 44.087,11.614c7.461,0.664 9.879,15.748 7.254,45.254l10.196,12.187c34.381,5.452 49.826,14.346 46.335,26.683l-8.369,47.965c-3.249,9.624 -21.089,14.19 -53.518,13.697c-10.74,9.299 -17.423,28.701 -20.048,58.206c1.71,7.672 8.733,13.254 21.07,16.744c30.591,-9.583 50.099,-4.088 58.523,16.488c-0.704,34.803 -6.532,58.041 -17.483,69.714c-11.261,11.304 -26.847,17.437 -46.758,18.4c-75.147,3.227 -118.416,-15.663 -129.807,-56.67l14.299,-114.606l-26.03,-47.437c0.251,-29.717 4.107,-44.243 11.568,-43.579l43.367,-26.393c20.586,-35.427 35.69,-51.516 45.314,-48.267Zm-1.803,314.147l45.4,-3.139l32.493,-30.949c3.377,-7.22 1.44,-12.349 -5.809,-15.386l-14.753,-1.313c-18.594,13.044 -31.41,16.86 -38.448,11.448l-17.148,-20.497c1.368,-42.264 7.216,-79.174 17.544,-110.728c5.623,-9.413 20.813,-13.017 45.57,-10.815c12.971,-3.631 17.576,-13.134 13.817,-28.509l-49.897,-27c-2.673,-27.584 -7.57,-41.692 -14.692,-42.326l-19.456,5.447c-12.491,28.969 -31.552,47.27 -57.184,54.902l-1.675,18.822l19.758,31.497l-23.862,95.297l18.446,46.249l49.896,27Z" style="fill-rule:nonzero;"/><path d="M1066.35,1240.65l110.028,13.892c14.016,11.502 22.558,28.84 25.623,52.015l54.881,287.914c-1.358,15.261 -8.537,24.877 -21.538,28.847c-40.244,-8.708 -75.684,-11.861 -106.32,-9.46l-14.22,-13.058l-11.912,-39.002c-13.662,-19.333 -24.344,-27.974 -32.046,-25.925c-15.473,1.016 -28.403,17.641 -38.791,49.873c-14.245,14.115 -31.267,19.095 -51.065,14.94l-3.707,-4.431c-31.089,7.488 -50.815,0.606 -59.179,-20.648c-1.144,-17.877 9.293,-48.738 31.311,-92.583l96.755,-228.787l20.18,-13.587Zm-98.901,339.348c9.933,3.618 21.626,0.898 35.079,-8.159l22.896,-44.109c9.128,-14.228 36.188,-16.777 81.18,-7.646l17.826,12.866l8.668,35.125c22.833,27.668 38.376,39.306 46.629,34.913c6.797,8.125 21.381,1.731 43.751,-19.181c5.298,-1.921 -11.639,-97.771 -50.812,-287.551c-11.771,-13.695 -28.791,-24.097 -51.061,-31.205c-29.73,-7.773 -50.799,0.436 -63.207,24.627l-106.739,254.561c-5.539,4.635 -0.276,16.554 15.79,35.759Zm129.631,-252.525l18.143,9.305l15.107,89.535c3.065,23.175 -3.154,35.44 -18.656,36.795c-35.724,1.949 -55.329,-6.29 -58.817,-24.717l31.99,-100.213l12.233,-10.705Z" style="fill-rule:nonzero;"/><path d="M1350.5,1227.99c53.697,-0.349 79.761,8.294 78.192,25.929l-22.119,208.254l9.155,23.887l21.534,17.298l87.814,4.225l17.148,20.497c3.87,41.021 -6.356,69.508 -30.678,85.461l-56.975,-5.07l-22.213,-9.667c-83.881,-2.337 -131.869,-6.606 -143.964,-12.81l-17.611,-21.051c7.109,-22.27 10.036,-55.166 8.781,-98.689c12.649,-26.904 20.538,-100.207 23.669,-219.909c11.743,-16.73 27.499,-22.848 47.267,-18.355Zm11.171,352.731l133.09,8.253l20.542,-17.656l2.354,-26.453l-24.416,-25.245l-87.86,-3.716l-17.147,-20.497l22.164,-208.762l-5.956,-19.502l-13.711,-13.013l-53.777,-0.683l-21.538,28.848c-8.19,149.674 -16.97,232.981 -26.339,249.923l16.615,32.242l55.979,16.261Z" style="fill-rule:nonzero;"/><path d="M1730.86,1326.95l75.797,6.744l13.949,16.11l-10.347,29.844c-30.072,22.961 -43.978,37.106 -41.718,42.434l4.96,30.693c32.13,69.173 46.612,106.182 43.446,111.027l-17.298,21.534l-65.602,5.443c-25.096,-2.233 -38.564,-8.387 -40.402,-18.464l-25.261,-56.085l-19.014,-5.281c-7.672,1.71 -14.449,20.25 -20.331,55.618l-19.818,9.517c-19.895,-6.898 -40.074,-8.694 -60.536,-5.387l-17.656,-20.542l25.027,-235.17c-6.684,-13.242 -6.632,-42.634 0.155,-88.177c14.117,-16.518 28.686,-22.742 43.705,-18.671c45.898,-1.044 69.418,7.373 70.562,25.249c-10.727,32.203 -10.376,70.518 1.053,114.947l22.892,2.037l40.506,-23.058l-4.069,-0.362Zm-154.047,227.279c20.348,1.81 32.162,-2.266 35.441,-12.229c3.621,-40.697 12.143,-65.404 25.567,-74.123l24.25,-13.224l28.847,21.538c15.4,57.429 29.479,85.515 42.239,84.258c1.71,7.672 15.961,5.009 42.755,-7.989l1.991,-22.383l-44.441,-99.836l2.354,-26.453l25.099,-28.531l-1.886,-19.139c-11.643,-11.29 -41.248,6.414 -88.815,53.113l-23.254,2.033l-6.59,-12.379l1,-57.338l10.814,-75.435l-20.176,-32.559c-32.444,-8.015 -52.341,0.47 -59.691,25.453l-0.683,53.776l-22.311,204.647c3.759,15.375 12.923,27.642 27.49,36.8Z" style="fill-rule:nonzero;"/><g><path d="M2271.21,1350.78l88.96,-7.757l19.786,13.725l13.726,100.698l2.866,132.783c-0.255,31.663 10.119,57.13 31.122,76.403c13.384,43.295 7.227,73.035 -18.472,89.218c-53.941,18.301 -88.304,10.203 -103.088,-24.294l-9.091,-50.267l6.37,-56.908l-13.871,-126.307c-8.798,-1.399 -20.23,-40.988 -34.297,-118.767l15.989,-28.527Zm72.134,253.558c17.072,-0.097 26.539,-10.354 28.401,-30.772l-5.276,-149.651c-0.159,-31.588 -15.107,-50.46 -44.847,-56.617c-17.072,0.097 -29.173,12.326 -36.303,36.687c11.439,32.538 20.717,83.839 27.834,153.902c10.915,29.642 20.979,45.126 30.191,46.451Zm27.854,132.75l20.314,-8.16l12.939,-24.13c-4.489,-24.823 -14.253,-38.652 -29.293,-41.486c-20.492,-2.275 -35.806,7.544 -45.942,29.458c-3.248,15.114 10.746,29.886 41.982,44.318Z" style="fill-rule:nonzero;"/><path d="M2429.61,1243.65l88.96,-7.758l19.786,13.726l13.726,100.698l2.866,132.783c-0.255,31.663 10.118,57.13 31.121,76.403c13.385,43.295 7.228,73.034 -18.471,89.218c-53.942,18.301 -88.305,10.202 -103.088,-24.294l-9.092,-50.267l6.371,-56.908l-13.871,-126.307c-8.798,-1.399 -20.231,-40.989 -34.298,-118.767l15.99,-28.527Zm72.133,253.557c17.073,-0.096 26.54,-10.354 28.401,-30.771l-5.275,-149.651c-0.159,-31.588 -15.108,-50.46 -44.847,-56.617c-17.073,0.097 -29.174,12.325 -36.304,36.686c11.439,32.539 20.718,83.84 27.835,153.903c10.915,29.642 20.979,45.126 30.19,46.45Zm27.854,132.751l20.314,-8.16l12.94,-24.13c-4.49,-24.823 -14.254,-38.652 -29.293,-41.486c-20.492,-2.276 -35.806,7.544 -45.942,29.458c-3.248,15.113 10.746,29.886 41.981,44.318Z" style="fill-rule:nonzero;"/><path d="M2602.76,1298.64l88.961,-7.757l19.785,13.725l13.726,100.698l2.866,132.783c-0.255,31.663 10.119,57.131 31.122,76.403c13.384,43.295 7.227,73.035 -18.472,89.218c-53.941,18.301 -88.304,10.203 -103.088,-24.294l-9.091,-50.267l6.37,-56.908l-13.871,-126.307c-8.798,-1.399 -20.23,-40.988 -34.297,-118.767l15.989,-28.527Zm72.134,253.558c17.072,-0.097 26.539,-10.354 28.401,-30.772l-5.276,-149.651c-0.158,-31.588 -15.107,-50.46 -44.847,-56.617c-17.072,0.097 -29.173,12.326 -36.303,36.687c11.439,32.538 20.717,83.839 27.834,153.902c10.916,29.642 20.979,45.126 30.191,46.451Zm27.854,132.75l20.314,-8.16l12.939,-24.13c-4.489,-24.823 -14.253,-38.652 -29.292,-41.486c-20.493,-2.275 -35.807,7.544 -45.943,29.458c-3.248,15.114 10.746,29.886 41.982,44.318Z" style="fill-rule:nonzero;"/><path d="M2099.73,1303.32l88.96,-7.757l19.786,13.725l13.725,100.698l2.866,132.783c-0.255,31.663 10.119,57.131 31.122,76.404c13.384,43.295 7.227,73.034 -18.471,89.217c-53.942,18.301 -88.305,10.203 -103.089,-24.294l-9.091,-50.267l6.371,-56.908l-13.872,-126.307c-8.798,-1.399 -20.23,-40.988 -34.297,-118.767l15.99,-28.527Zm72.133,253.558c17.073,-0.097 26.54,-10.354 28.401,-30.772l-5.276,-149.651c-0.158,-31.587 -15.107,-50.46 -44.846,-56.617c-17.073,0.097 -29.174,12.326 -36.304,36.687c11.439,32.538 20.717,83.839 27.834,153.902c10.916,29.643 20.979,45.126 30.191,46.451Zm27.854,132.75l20.314,-8.16l12.939,-24.13c-4.489,-24.823 -14.253,-38.652 -29.292,-41.486c-20.492,-2.275 -35.806,7.544 -45.942,29.458c-3.248,15.114 10.745,29.886 41.981,44.318Z" style="fill-rule:nonzero;"/></g></g></svg>