<?xml version="1.0" encoding="UTF-8" standalone="no"?><!DOCTYPE svg PUBLIC "-//W3C//DTD SVG 1.1//EN" "http://www.w3.org/Graphics/SVG/1.1/DTD/svg11.dtd"><svg width="100%" height="100%" viewBox="0 0 3334 2500" version="1.1" xmlns="http://www.w3.org/2000/svg" xmlns:xlink="http://www.w3.org/1999/xlink" xml:space="preserve" xmlns:serif="http://www.serif.com/" style="fill-rule:evenodd;clip-rule:evenodd;stroke-linejoin:round;stroke-miterlimit:2;"><g><g><path d="M1282.51,932.418l172.392,-15.034l38.343,26.598l26.598,195.139l5.554,257.315c-0.494,61.358 19.609,110.711 60.31,148.059c25.937,83.9 14.005,141.53 -35.796,172.892c-104.531,35.464 -171.121,19.771 -199.77,-47.079l-17.618,-97.41l12.346,-110.28l-26.881,-244.765c-17.049,-2.712 -39.204,-79.43 -66.463,-230.155l30.985,-55.28Zm139.785,491.359c33.084,-0.188 51.429,-20.065 55.037,-59.631l-10.224,-290.003c-0.307,-61.213 -29.276,-97.785 -86.906,-109.717c-33.084,0.188 -56.535,23.886 -70.352,71.094c22.168,63.055 40.147,162.469 53.939,298.242c21.153,57.443 40.654,87.447 58.506,90.015Zm53.977,257.251l39.365,-15.813l25.075,-46.76c-8.7,-48.104 -27.621,-74.902 -56.765,-80.394c-39.711,-4.41 -69.387,14.619 -89.03,57.085c-6.294,29.288 20.824,57.916 81.355,85.882Z" style="fill-rule:nonzero;"/><path d="M1589.48,724.818l172.393,-15.033l38.342,26.597l26.599,195.139l5.553,257.316c-0.494,61.357 19.609,110.71 60.31,148.059c25.937,83.899 14.005,141.53 -35.796,172.891c-104.531,35.464 -171.121,19.771 -199.77,-47.079l-17.617,-97.409l12.345,-110.28l-26.881,-244.765c-17.049,-2.713 -39.204,-79.431 -66.463,-230.155l30.985,-55.281Zm139.785,491.359c33.084,-0.188 51.429,-20.065 55.037,-59.631l-10.224,-290.003c-0.307,-61.212 -29.276,-97.784 -86.906,-109.716c-33.084,0.188 -56.535,23.886 -70.351,71.094c22.167,63.054 40.146,162.468 53.939,298.241c21.152,57.443 40.653,87.448 58.505,90.015Zm53.977,257.251l39.365,-15.813l25.075,-46.76c-8.699,-48.103 -27.621,-74.901 -56.765,-80.394c-39.711,-4.409 -69.387,14.619 -89.029,57.085c-6.295,29.289 20.823,57.916 81.354,85.882Z" style="fill-rule:nonzero;"/><path d="M1925.02,831.38l172.392,-15.034l38.342,26.598l26.599,195.139l5.554,257.315c-0.494,61.358 19.609,110.711 60.309,148.059c25.938,83.9 14.006,141.53 -35.795,172.892c-104.531,35.464 -171.121,19.771 -199.771,-47.079l-17.617,-97.41l12.345,-110.28l-26.88,-244.765c-17.05,-2.712 -39.204,-79.43 -66.464,-230.155l30.986,-55.28Zm139.784,491.359c33.084,-0.188 51.43,-20.065 55.038,-59.631l-10.224,-290.003c-0.307,-61.213 -29.276,-97.785 -86.907,-109.717c-33.084,0.188 -56.534,23.886 -70.351,71.094c22.167,63.055 40.147,162.469 53.939,298.242c21.152,57.443 40.654,87.447 58.505,90.015Zm53.978,257.251l39.365,-15.813l25.075,-46.76c-8.7,-48.104 -27.621,-74.902 -56.765,-80.394c-39.711,-4.41 -69.388,14.619 -89.03,57.085c-6.294,29.288 20.824,57.916 81.355,85.882Z" style="fill-rule:nonzero;"/><path d="M950.203,840.435l172.392,-15.033l38.342,26.598l26.599,195.139l5.554,257.315c-0.495,61.358 19.608,110.711 60.309,148.059c25.937,83.9 14.005,141.53 -35.795,172.891c-104.531,35.465 -171.122,19.772 -199.771,-47.079l-17.617,-97.409l12.345,-110.28l-26.88,-244.765c-17.05,-2.712 -39.204,-79.43 -66.464,-230.155l30.986,-55.281Zm139.784,491.359c33.084,-0.187 51.43,-20.064 55.037,-59.63l-10.223,-290.003c-0.308,-61.213 -29.277,-97.785 -86.907,-109.717c-33.084,0.188 -56.534,23.886 -70.351,71.094c22.167,63.055 40.147,162.469 53.939,298.242c21.152,57.442 40.654,87.447 58.505,90.014Zm53.977,257.252l39.366,-15.813l25.075,-46.761c-8.7,-48.103 -27.622,-74.901 -56.765,-80.394c-39.712,-4.409 -69.388,14.619 -89.03,57.085c-6.294,29.289 20.824,57.916 81.354,85.883Z" style="fill-rule:nonzero;"/></g></g></svg>